<svg width="268" height="45" viewBox="0 0 268 45" fill="none" xmlns="http://www.w3.org/2000/svg">
<path d="M107.786 32.7405L89.3735 36.2333H116.345L107.786 32.7405Z" fill="black" stroke="black" stroke-width="0.22231"/>
<path d="M87 31.5763L100.522 8L116.345 35.3601L107.858 31.9401L100.522 15.4949L87 31.5763Z" fill="black"/>
<path d="M100.522 8L87 31.5763L100.522 15.4949M100.522 8V15.4949M100.522 8L116.345 35.3601L107.858 31.9401L100.522 15.4949" stroke="black" stroke-width="0.22231"/>
<path d="M1.37943 36V34.6962L4.95084 33.997L4.98863 21.5821L4.95084 9.7908L1.37943 9.14832V7.65551H19.2365V14.2125H17.8192L16.761 9.20501H9.29699L8.31438 9.60183V21.5821L8.35218 34.0915L12.2637 34.6962V36H1.37943ZM6.61371 22.149V20.7885L14.2667 20.6751L15.2115 17.4438H16.6477V25.9094H15.2115L14.2667 22.2624L6.61371 22.149ZM19.5571 33.1656L19.576 31.4271C20.6846 32.5861 21.8751 33.3923 23.1474 33.8458C24.4324 34.2993 25.7614 34.5261 27.1345 34.5261C28.6714 34.5261 29.9186 34.0222 30.876 33.0144C31.8334 31.994 32.3121 30.4634 32.3121 28.4226C32.3121 26.2684 31.6382 24.6559 30.2902 23.5851C28.9549 22.5143 27.1156 21.9789 24.7725 21.9789H24.0733L23.582 20.6373L25.1504 20.5806C27.2164 20.5176 28.8352 19.9381 30.0068 18.8421C31.1909 17.7461 31.783 16.1589 31.783 14.0803C31.783 12.3922 31.3925 11.1387 30.6115 10.3199C29.843 9.50105 28.7785 9.09163 27.418 9.09163C26.133 9.09163 24.9741 9.30579 23.9411 9.73411C22.9207 10.1498 21.8499 10.8616 20.7287 11.8694L20.6909 10.3199C21.5979 9.32469 22.6435 8.56883 23.8277 8.05233C25.0118 7.53584 26.4543 7.27759 28.1549 7.27759C30.1453 7.27759 31.8208 7.86337 33.1814 9.03494C34.5545 10.2065 35.2411 11.7371 35.2411 13.6268C35.2411 15.6046 34.7183 17.1415 33.6727 18.2375C32.6271 19.3334 31.1028 20.209 29.0997 20.864V20.9963C31.065 21.3239 32.6901 22.149 33.975 23.4717C35.26 24.7945 35.9024 26.5581 35.9024 28.7627C35.9024 31.1562 35.1088 33.0396 33.5215 34.4127C31.9468 35.7858 30.0698 36.4724 27.8904 36.4724C25.9882 36.4724 24.3379 36.1764 22.9395 35.5843C21.5538 34.9796 20.4263 34.1734 19.5571 33.1656ZM37.3719 36V27.3266H38.8647L40.3197 32.8632L38.7513 36H37.3719ZM37.9577 14.4015C37.9577 12.3733 38.6128 10.6852 39.9229 9.33729C41.2457 7.98935 43.0723 7.31538 45.4028 7.31538C46.8264 7.31538 48.1365 7.52954 49.3333 7.95785C50.5301 8.37357 51.5882 8.99715 52.5079 9.82859L51.1095 11.5482C50.5301 10.8679 49.7742 10.2821 48.842 9.7908C47.9224 9.29949 46.7949 9.05384 45.4595 9.05384C43.9226 9.05384 42.7385 9.43807 41.907 10.2065C41.0756 10.975 40.6599 12.0017 40.6599 13.2866C40.6599 14.6094 41.1701 15.7179 42.1905 16.6124C43.2109 17.5068 44.9367 18.4705 47.3681 19.5035C49.5222 20.4231 51.3426 21.5695 52.8291 22.9426C54.3282 24.3032 55.0778 26.1109 55.0778 28.3659C55.0778 30.6838 54.3219 32.605 52.8102 34.1293C51.2985 35.6536 49.3396 36.4157 46.9335 36.4157C44.7793 36.4157 43.0219 35.9937 41.6614 35.1497C40.3134 34.3056 39.1041 33.0837 38.0333 31.4838L39.904 30.9547C40.2442 32.0255 41.0693 32.9325 42.3794 33.6758C43.6896 34.419 45.2391 34.7906 47.0279 34.7906C48.6404 34.7906 49.9191 34.2993 50.8639 33.3167C51.8213 32.3215 52.3 31.0744 52.3 29.5752C52.3 27.7864 51.6764 26.3755 50.4293 25.3425C49.1821 24.3095 47.3618 23.3269 44.9682 22.3946C42.4361 21.412 40.6347 20.3412 39.5639 19.1823C38.4931 18.0233 37.9577 16.4297 37.9577 14.4015ZM50.486 11.1135L51.8465 7.90116H53.1881V15.7053H51.7142L50.486 11.1135ZM68.1523 36V27.3266H69.6451L71.1001 32.8632L69.5317 36H68.1523ZM68.738 14.4015C68.738 12.3733 69.3931 10.6852 70.7033 9.33729C72.026 7.98935 73.8526 7.31538 76.1832 7.31538C77.6067 7.31538 78.9169 7.52954 80.1136 7.95785C81.3104 8.37357 82.3686 8.99715 83.2882 9.82859L81.8899 11.5482C81.3104 10.8679 80.5545 10.2821 79.6223 9.7908C78.7027 9.29949 77.5752 9.05384 76.2399 9.05384C74.703 9.05384 73.5188 9.43807 72.6874 10.2065C71.8559 10.975 71.4402 12.0017 71.4402 13.2866C71.4402 14.6094 71.9504 15.7179 72.9708 16.6124C73.9912 17.5068 75.7171 18.4705 78.1484 19.5035C80.3026 20.4231 82.1229 21.5695 83.6094 22.9426C85.1086 24.3032 85.8581 26.1109 85.8581 28.3659C85.8581 30.6838 85.1023 32.605 83.5905 34.1293C82.0788 35.6536 80.1199 36.4157 77.7138 36.4157C75.5596 36.4157 73.8023 35.9937 72.4417 35.1497C71.0938 34.3056 69.8844 33.0837 68.8136 31.4838L70.6844 30.9547C71.0245 32.0255 71.8496 32.9325 73.1598 33.6758C74.4699 34.419 76.0194 34.7906 77.8083 34.7906C79.4208 34.7906 80.6994 34.2993 81.6442 33.3167C82.6016 32.3215 83.0803 31.0744 83.0803 29.5752C83.0803 27.7864 82.4568 26.3755 81.2096 25.3425C79.9625 24.3095 78.1421 23.3269 75.7486 22.3946C73.2165 21.412 71.415 20.3412 70.3442 19.1823C69.2734 18.0233 68.738 16.4297 68.738 14.4015ZM81.2663 11.1135L82.6268 7.90116H83.9685V15.7053H82.4946L81.2663 11.1135Z" fill="black"/>
<path d="M117.379 36V34.6962L120.951 33.997L120.989 21.5821L120.951 9.7908L117.379 9.14832V7.65551H135.236V14.2125H133.819L132.761 9.20501H125.297L124.314 9.60183V21.5821L124.352 34.0915L128.264 34.6962V36H117.379ZM122.614 22.149V20.7885L130.267 20.6751L131.212 17.4438H132.648V25.9094H131.212L130.267 22.2624L122.614 22.149ZM136.389 15.2518V7.65551H157.647V15.2518H156.211L154.907 9.18612H149.484L148.69 9.50735L148.671 21.7522L148.709 34.0159L152.413 34.6962V36H141.566V34.6962L145.308 34.0159L145.345 21.7522L145.327 9.50735L144.665 9.18612H139.053L137.825 15.2518H136.389ZM157.671 9.12943V7.65551H167.459V9.12943L164.266 9.90418L167.667 20.864L171.125 31.4838L174.432 20.9207L176.643 13.589L177.625 16.2722L175.981 21.5821L171.371 36.1323H169.235L164.606 21.8844L160.543 9.86638L157.671 9.12943ZM170.785 8.99715V7.65551H180.233V8.99715L177.342 9.7719L180.516 20.8829L183.767 31.4649L187.168 20.8829L190.456 9.80969L186.696 9.12943V7.65551H196.144V9.12943L192.421 9.88528L188.699 21.4309L184.088 36.1323H181.839L177.531 21.9789L173.657 9.73411L170.785 8.99715ZM194.449 36V34.6962L197.831 34.0348L200.836 25.7204L207.034 7.52324H209.339L215.499 24.9834L218.806 34.0348L221.868 34.6962V36H212.041V34.6962L215.122 34.1104L212.646 26.2117L207.355 11.6048L202.348 26.155L199.872 34.1104L203.519 34.6962V36H194.449ZM201.289 26.892L201.837 25.2858L208.054 25.4559L213.969 25.2669L214.422 26.892H201.289ZM222.638 36V34.6962L226.209 34.0159L226.247 21.7522L226.209 9.7908L222.638 9.14832V7.65551H233.938C236.47 7.65551 238.341 8.2098 239.55 9.31839C240.772 10.427 241.383 12.0206 241.383 14.0992C241.383 16.3541 240.652 18.1808 239.191 19.5791C237.73 20.9648 235.985 21.6577 233.957 21.6577C233.138 21.6577 232.111 21.6388 230.877 21.601C229.655 21.5506 228.71 21.4939 228.042 21.4309L228.061 20.2027L230.026 20.2216H232.596C234.385 20.2216 235.683 19.6862 236.489 18.6154C237.295 17.5446 237.698 16.0833 237.698 14.2314C237.698 12.5812 237.346 11.334 236.64 10.49C235.935 9.63333 234.801 9.20501 233.239 9.20501H230.159L229.648 9.58294L229.573 21.7711L229.611 34.0159L233.295 34.6962V36H222.638ZM232.332 21.4309L235.223 20.2972L241.213 30.3878C242.284 32.0129 243.229 33.1341 244.047 33.7513C244.879 34.356 245.628 34.671 246.296 34.6962V36H241.591L240.495 34.9418L232.332 21.4309ZM247.181 36V34.6962L250.752 34.0159L250.79 21.2042L250.752 9.7719L247.181 9.12943V7.65551H265.662V14.0236H264.225L262.978 9.20501H255.325L254.135 9.56404L254.097 21.2042L254.135 34.1104L255.609 34.5828H264.112L266.115 29.065H267.532L266.795 36H247.181ZM252.491 21.79V20.505L260.635 20.3349L261.561 17.1604H262.997V25.1346H261.561L260.635 21.96L252.491 21.79Z" fill="black"/>
</svg>
